Coordinates
version=1
nRows=10
nColumns=40
inDegrees=yes

Units are S.I. units (second, meters, Newtons, ...)
If the header above contains a line with 'inDegrees', this indicates whether rotational values are in degrees (yes) or radians (no).

endheader
time	pelvis_tilt	pelvis_list	pelvis_rotation	pelvis_tx	pelvis_ty	pelvis_tz	hip_flexion_r	hip_adduction_r	hip_rotation_r	knee_angle_r	knee_angle_r_beta	ankle_angle_r	subtalar_angle_r	mtp_angle_r	hip_flexion_l	hip_adduction_l	hip_rotation_l	knee_angle_l	knee_angle_l_beta	ankle_angle_l	subtalar_angle_l	mtp_angle_l	lumbar_extension	lumbar_bending	lumbar_rotation	arm_flex_r	arm_add_r	arm_rot_r	elbow_flex_r	pro_sup_r	wrist_flex_r	wrist_dev_r	arm_flex_l	arm_add_l	arm_rot_l	elbow_flex_l	pro_sup_l	wrist_flex_l	wrist_dev_l
      0.32800000	     84.87533997	     78.55868145	    -82.31011062	      0.56969420	      0.30705294	      0.96303962	      0.20662604	      4.44476499	     -4.93176047	     20.45447581	      0.35699795	     -4.74980445	      0.00000000	      0.00000000	     -2.87893993	     -5.83288300	      0.45562199	     58.68651186	      1.02427286	    -19.40723872	      0.00000000	      0.00000000	    -21.98344116	      3.48352521	     -1.97393447	      0.74437990	    -17.71033321	     13.68307857	     42.86276017	     72.47402488	      0.00000000	      0.00000000	     -0.81317585	    -21.91734354	     21.44155607	     42.34873216	     78.15707843	      0.00000000	      0.00000000
      0.33200000	     84.91570042	     78.46670753	    -82.26229807	      0.57530116	      0.30687147	      0.96407620	     -0.57973013	      4.51510853	     -5.05292317	     19.84772739	      0.34640819	     -4.80744463	      0.00000000	      0.00000000	     -2.34677277	     -5.80749225	      0.72347543	     58.72849737	      1.02500564	    -18.34461191	      0.00000000	      0.00000000	    -22.02187003	      3.47434237	     -1.97619801	      0.86023935	    -17.65321281	     13.81889585	     43.08028299	     72.58474781	      0.00000000	      0.00000000	     -1.00822130	    -21.93808720	     21.44765885	     42.30082674	     78.28262394	      0.00000000	      0.00000000
      0.33600000	     84.82732839	     78.44075683	    -82.35943456	      0.58041883	      0.30642062	      0.96501458	     -1.01745501	      4.54401369	     -5.18917320	     19.75026518	      0.34470716	     -4.77329311	      0.00000000	      0.00000000	     -1.76709329	     -5.77004065	      0.72260592	     58.58962552	      1.02258187	    -18.14137639	      0.00000000	      0.00000000	    -22.10310285	      3.40246439	     -1.77341140	      1.09465705	    -17.58561003	     13.83376687	     43.24156033	     72.59825986	      0.00000000	      0.00000000	     -1.13113510	    -21.97252110	     21.42574760	     42.20306790	     78.29497604	      0.00000000	      0.00000000
      0.34000000	     84.79920899	     77.62612350	    -82.14469318	      0.58784944	      0.30632756	      0.96718543	     -3.27135014	      4.83442472	     -5.17215454	     17.94325661	      0.31316891	     -5.33907367	      0.00000000	      0.00000000	     -2.41145426	     -5.92184028	      0.89813708	     58.09642809	      1.01397395	    -16.71178198	      0.00000000	      0.00000000	    -22.74880089	      3.51990971	     -1.89812952	      1.00113563	    -17.53658377	     13.83797717	     43.57671374	     73.18316707	      0.00000000	      0.00000000	     -1.65453331	    -21.96480114	     20.80315390	     42.29640770	     79.13842474	      0.00000000	      0.00000000
      0.34400000	     84.90525155	     77.68757564	    -82.33818776	      0.59340265	      0.30611242	      0.96788745	     -3.80632484	      4.83763452	     -5.16032440	     17.49792401	      0.30539639	     -5.31720479	      0.00000000	      0.00000000	     -1.75597467	     -5.84771573	      0.92356825	     58.00898385	      1.01244776	    -15.76825859	      0.00000000	      0.00000000	    -22.65218258	      3.43626005	     -1.77609853	      1.12717226	    -17.56166248	     14.05232571	     43.79876732	     73.24639936	      0.00000000	      0.00000000	     -1.86803642	    -21.95106726	     20.73049796	     42.23426243	     79.25495910	      0.00000000	      0.00000000
      0.34800000	     84.92434409	     77.78182214	    -82.46597501	      0.59918062	      0.30579786	      0.96844519	     -4.30898036	      4.84910851	     -5.32178403	     17.08137689	      0.29812627	     -5.21755199	      0.00000000	      0.00000000	     -1.09664955	     -5.80390403	      0.89493528	     57.83674982	      1.00944171	    -15.18511275	      0.00000000	      0.00000000	    -22.47218168	      3.34487766	     -1.61854402	      1.21675239	    -17.51060138	     14.13450380	     43.95234263	     73.28895063	      0.00000000	      0.00000000	     -2.07159962	    -21.93548305	     20.67104036	     42.07419616	     79.32698571	      0.00000000	      0.00000000
      0.35200000	     84.99914121	     77.81252667	    -82.56414212	      0.60458004	      0.30562489	      0.96907152	     -4.87196077	      4.86963931	     -5.43091822	     16.60597727	      0.28982898	     -5.21519924	      0.00000000	      0.00000000	     -0.47111571	     -5.71337930	      1.03413885	     57.66952134	      1.00652303	    -14.38101652	      0.00000000	      0.00000000	    -22.43444358	      3.28816901	     -1.53185866	      1.28956351	    -17.49555133	     14.13076169	     44.26074570	     73.36262769	      0.00000000	      0.00000000	     -2.27747332	    -21.92939661	     20.48895687	     42.01763856	     79.39810846	      0.00000000	      0.00000000
      0.35600000	     85.20375373	     77.46221406	    -82.64921348	      0.61048815	      0.30546729	      0.97032462	     -6.06773292	      4.97819733	     -5.66776736	     15.74491236	      0.27480056	     -5.54162263	      0.00000000	      0.00000000	     -0.36329601	     -5.65463516	      1.25908503	     57.29484220	      0.99998364	    -13.60471225	      0.00000000	      0.00000000	    -22.74618048	      3.27536693	     -1.65805016	      1.46812230	    -17.37601572	     14.17609259	     44.42323083	     73.77441805	      0.00000000	      0.00000000	     -2.62165577	    -22.00562767	     20.15946357	     42.15334978	     79.80550653	      0.00000000	      0.00000000
      0.36000000	     85.42555911	     77.24886799	    -82.89928285	      0.61637321	      0.30542369	      0.97135765	     -7.07450289	      5.01132483	     -5.55786738	     15.01097879	      0.26199100	     -5.74305302	      0.00000000	      0.00000000	     -0.17559390	     -5.53813387	      1.37501265	     56.83823455	      0.99201433	    -13.46786933	      0.00000000	      0.00000000	    -22.92585520	      3.21854320	     -1.59606660	      1.52927356	    -17.36733752	     14.21199176	     44.69887045	     74.12496017	      0.00000000	      0.00000000	     -2.84165245	    -21.97095797	     19.96719923	     42.06800802	     80.34215524	      0.00000000	      0.00000000
      0.36400000	     85.41396433	     77.34182717	    -82.98118084	      0.62159560	      0.30506650	      0.97172989	     -7.43237727	      5.02362832	     -5.74111925	     14.79468096	      0.25821589	     -5.65732470	      0.00000000	      0.00000000	      0.51550090	     -5.49159633	      1.37689270	     56.51648351	      0.98639872	    -13.13854668	      0.00000000	      0.00000000	    -22.82014618	      3.12490145	     -1.38685040	      1.59760946	    -17.37185353	     14.29257795	     44.96499416	     74.13417229	      0.00000000	      0.00000000	     -2.95825018	    -22.03389155	     19.83810911	     42.06305737	     80.28765275	      0.00000000	      0.00000000
